<?xml version="1.0" encoding="UTF-8" standalone="no"?>
<svg
   version="1.1"
   x="0px"
   y="0px"
   viewBox="0 0 100 99.999999"
   enable-background="new 0 0 100 100"
   xml:space="preserve"
   id="svg4"
   width="100"
   height="100"
   xmlns="http://www.w3.org/2000/svg"
   xmlns:svg="http://www.w3.org/2000/svg"><defs
     id="defs4" /><g
     id="g3"
     style="display:inline"
     transform="matrix(1.0336436,0,0,1.0336436,-1.495114,-3.0535998)"><path
       fill="#000000"
       d="m 67.022,66.238 c 4.007,-0.975 9.697,-2.172 15.654,-2.81 0.27,-1.359 0.416,-2.747 0.416,-4.161 0,-0.529 -0.022,-1.056 -0.061,-1.578 v -7.557 c -2.79,6.591 -8.504,12.231 -16.009,16.106 z"
       id="path1" /><path
       fill="#000000"
       d="m 43.141,69.965 c 22.065,0 39.952,-12.994 39.952,-29.023 C 83.093,24.913 65.206,11.92 43.141,11.92 21.076,11.92 3.189,24.914 3.189,40.942 3.188,56.971 21.076,69.965 43.141,69.965 Z M 9.82,40.94 c 0,-4.666 5.207,-8.448 11.63,-8.448 6.423,0 11.63,3.783 11.63,8.448 0,4.666 -5.207,8.449 -11.63,8.449 -6.424,0 -11.63,-3.783 -11.63,-8.449 z m 66.642,0 c 0,4.666 -5.209,8.449 -11.632,8.449 -6.423,0 -11.63,-3.783 -11.63,-8.449 0,-4.666 5.207,-8.448 11.63,-8.448 6.423,0 11.632,3.783 11.632,8.448 z M 31.509,56.698 c 0,-4.665 5.208,-8.449 11.629,-8.449 6.424,0 11.631,3.784 11.631,8.449 0,4.667 -5.208,8.448 -11.631,8.448 -6.422,0 -11.629,-3.781 -11.629,-8.448 z m 8.667,-15.757 c 0,-1.189 1.328,-2.153 2.965,-2.153 1.637,0 2.965,0.964 2.965,2.153 0,1.189 -1.328,2.154 -2.965,2.154 -1.637,0 -2.965,-0.964 -2.965,-2.154 z M 54.77,25.186 c 0,4.666 -5.208,8.449 -11.631,8.449 -6.422,0 -11.629,-3.783 -11.629,-8.449 0,-4.667 5.208,-8.449 11.629,-8.449 6.423,-10e-4 11.631,3.782 11.631,8.449 z"
       id="path2" /><path
       fill="#000000"
       d="m 85.484,64.411 c -10.738,0.977 -24.245,4.428 -30.171,6.047 -3.854,0.868 -7.939,1.339 -12.173,1.339 -18.725,0 -34.613,-9.143 -39.907,-21.701 v 7.876 c -0.026,0.43 -0.045,0.861 -0.045,1.295 0,16.03 17.887,29.023 39.952,29.023 7.255,0 14.053,-1.412 19.916,-3.867 22.008,-5.756 34.193,-3.097 34.193,-3.097 V 64.955 C 94.481,64.033 90.256,63.978 85.484,64.411 Z"
       id="path3" /></g></svg>
